<svg xmlns="http://www.w3.org/2000/svg" xmlns:xlink="http://www.w3.org/1999/xlink" viewBox="0 0 29.2 38.02"><defs><style>.cls-1{fill:url(#linear-gradient);}.cls-2{fill:url(#linear-gradient-2);}.cls-3{fill:url(#linear-gradient-3);}.cls-4{fill:url(#linear-gradient-4);}</style><linearGradient id="linear-gradient" x1="16.04" y1="40.83" x2="3.04" y2="32.03" gradientTransform="matrix(1, 0, 0, -1, 0, 42)" gradientUnits="userSpaceOnUse"><stop offset="0" stop-color="#1b769d"/><stop offset="0.29" stop-color="#1d6790"/><stop offset="0.65" stop-color="#1f5a86"/><stop offset="1" stop-color="#205682"/></linearGradient><linearGradient id="linear-gradient-2" x1="-1.26" y1="28.14" x2="14.83" y2="22.91" gradientTransform="matrix(1, 0, 0, -1, 0, 42)" gradientUnits="userSpaceOnUse"><stop offset="0" stop-color="#001b46"/><stop offset="1" stop-color="#466687"/></linearGradient><linearGradient id="linear-gradient-3" x1="6.62" y1="17.07" x2="29.19" y2="17.07" xlink:href="#linear-gradient"/><linearGradient id="linear-gradient-4" x1="20.44" y1="28.44" x2="29.2" y2="28.44" gradientTransform="matrix(1, 0, 0, -1, 0, 42)" gradientUnits="userSpaceOnUse"><stop offset="0.5" stop-color="#243a5a"/><stop offset="0.88" stop-color="#203b57"/><stop offset="1" stop-color="#1d3c55"/></linearGradient></defs><g id="Layer_2" data-name="Layer 2"><g id="Layer_1-2" data-name="Layer 1"><path class="cls-1" d="M13.82,8.77H8.76A8.77,8.77,0,0,0,0,17.55V8.77A8.77,8.77,0,0,1,8.76,0H22.58A8.76,8.76,0,0,1,13.82,8.77Z"/><path class="cls-2" d="M8.76,8.77v5.07A8.77,8.77,0,0,1,0,22.62V17.55A8.77,8.77,0,0,1,8.76,8.77Z"/><path class="cls-3" d="M15.38,20.48h5.06A8.77,8.77,0,0,0,29.2,11.7v8.78a8.77,8.77,0,0,1-8.76,8.77H13.53L6.62,38V29.25A8.77,8.77,0,0,1,15.38,20.48Z"/><path class="cls-4" d="M20.44,20.48V15.41A8.77,8.77,0,0,1,29.2,6.64V11.7A8.77,8.77,0,0,1,20.44,20.48Z"/></g></g></svg>