<svg width="155" height="40" viewBox="0 0 155 40" fill="none" xmlns="http://www.w3.org/2000/svg">
<path d="M13.8197 8.773H8.75878C3.92247 8.773 0 12.7018 0 17.546V8.773C0 3.92884 3.92247 0 8.75878 0H22.5785C22.5785 4.84719 18.6591 8.773 13.8197 8.773Z" fill="url(#paint0_linear_118_4545)"/>
<path d="M8.75878 8.77295V13.8421C8.75878 18.6863 4.8363 22.6151 0 22.6151V17.5459C0 12.7018 3.92247 8.77295 8.75878 8.77295Z" fill="url(#paint1_linear_118_4545)"/>
<path d="M15.3803 20.4776H20.4412C25.2775 20.4776 29.2 16.5487 29.2 11.7046V20.4776C29.2 25.3217 25.2775 29.2506 20.4412 29.2506H13.5344L6.62451 38.0205V29.2506C6.62148 24.4064 10.544 20.4776 15.3803 20.4776Z" fill="url(#paint2_linear_118_4545)"/>
<path d="M20.4443 20.4774V15.4083C20.4443 10.5641 24.3668 6.63525 29.2031 6.63525V11.7044C29.2001 16.5486 25.2806 20.4774 20.4443 20.4774Z" fill="url(#paint3_linear_118_4545)"/>
<path d="M42.1362 29.1103V6.7627H50.0753C52.5678 6.7627 54.4805 7.34959 55.8072 8.52338C57.137 9.69716 57.8018 11.4061 57.8018 13.6503C57.8018 15.8945 57.137 17.6126 55.8072 18.8016C54.4775 19.9937 52.5678 20.5866 50.0753 20.5866H44.5559V29.1103H42.1362ZM44.5529 18.2482H49.7626C50.9497 18.2482 51.9363 18.1174 52.7257 17.862C53.5151 17.6035 54.0889 17.2295 54.4501 16.7368C54.8084 16.2442 55.0543 15.7607 55.1848 15.2924C55.3154 14.8241 55.3791 14.2768 55.3791 13.6503C55.3791 13.0269 55.3154 12.4796 55.1848 12.0082C55.0543 11.5369 54.8084 11.0534 54.4501 10.5547C54.0919 10.056 53.5151 9.67892 52.7257 9.42348C51.9363 9.16501 50.9466 9.03729 49.7626 9.03729H44.5529V18.2482Z" fill="#333333"/>
<path d="M58.1934 29.1103V13.7112C60.7102 12.659 63.4092 12.1299 66.2964 12.1299V14.4045C64.4717 14.4501 62.5773 14.739 60.613 15.2742V29.1133H58.1934V29.1103Z" fill="#333333"/>
<path d="M65.8259 25.0783C65.3584 23.8832 65.1216 22.4357 65.1216 20.7359C65.1216 19.033 65.3554 17.5855 65.8259 16.3935C66.2935 15.1984 66.931 14.3074 67.7356 13.7175C68.5401 13.1275 69.3598 12.7109 70.1917 12.4646C71.0265 12.2183 71.9464 12.0967 72.9513 12.0967C73.9593 12.0967 74.8853 12.2183 75.7293 12.4646C76.5733 12.7109 77.399 13.1275 78.2036 13.7175C79.0081 14.3074 79.6457 15.1984 80.1132 16.3935C80.5807 17.5885 80.8145 19.036 80.8145 20.7359C80.8145 22.4357 80.5807 23.8863 80.1132 25.0783C79.6457 26.2734 79.0081 27.1643 78.2036 27.7543C77.399 28.3442 76.5733 28.7608 75.7293 29.0071C74.8853 29.2534 73.9593 29.3751 72.9513 29.3751C71.9434 29.3751 71.0235 29.2534 70.1917 29.0071C69.3598 28.7608 68.5401 28.3442 67.7356 27.7543C66.931 27.1643 66.2935 26.2734 65.8259 25.0783ZM68.8315 15.8431C67.9724 16.8679 67.5413 18.4978 67.5413 20.7359C67.5413 22.9709 67.9724 24.6009 68.8315 25.6256C69.6907 26.6504 71.069 27.1643 72.9635 27.1643C74.8579 27.1643 76.2393 26.6565 77.1046 25.6439C77.9698 24.6313 78.404 22.9953 78.404 20.7359C78.404 18.4765 77.9728 16.8435 77.1046 15.8279C76.2393 14.8122 74.8579 14.3074 72.9635 14.3074C71.069 14.3074 69.6907 14.8183 68.8315 15.8431Z" fill="#333333"/>
<path d="M79.6304 14.6022V12.3915H82.5054V11.4914C82.5054 10.3359 82.6542 9.34149 82.9548 8.51436C83.2523 7.6842 83.5954 7.07602 83.9748 6.68374C84.3574 6.29147 84.8431 5.98434 85.4382 5.75931C86.0302 5.53732 86.4826 5.41265 86.7922 5.39136C87.1019 5.37007 87.4693 5.35791 87.8943 5.35791C88.4924 5.35791 89.0267 5.42481 89.4942 5.55557V7.6994C89.048 7.61122 88.6442 7.56864 88.2859 7.56864C87.7516 7.56864 87.3478 7.58993 87.0685 7.6325C86.7922 7.67508 86.4552 7.80888 86.0636 8.0339C85.672 8.25589 85.3835 8.65425 85.1983 9.22898C85.0132 9.80067 84.9221 10.5457 84.9221 11.461V12.3946H91.8319V14.6053H84.9221V29.1165H82.5054V14.6022H79.6304Z" fill="#333333"/>
<path d="M91.0581 9.4477V6.76562H93.7358V9.4477H91.0581ZM91.1886 29.1102H93.6053V12.3913H91.1886V29.1102Z" fill="#333333"/>
<path d="M82.5117 38.0902V33.5411C83.2555 33.2309 84.054 33.0728 84.9041 33.0728V33.7448C84.3667 33.76 83.805 33.8451 83.2252 34.0033V38.0902H82.5117Z" fill="#333333"/>
<path d="M85.1045 35.6852C85.1045 35.6791 85.1045 35.667 85.1045 35.6518C85.1045 35.6366 85.1045 35.6214 85.1045 35.6122C85.1045 33.9124 85.824 33.064 87.2631 33.064C87.5636 33.064 87.8369 33.1126 88.0828 33.2069C88.3257 33.3012 88.523 33.4137 88.6657 33.5414C88.8084 33.6721 88.9359 33.8394 89.0452 34.0462C89.1545 34.253 89.2304 34.4293 89.2759 34.5753C89.3245 34.7213 89.3579 34.8946 89.3822 35.1014C89.4095 35.3021 89.4216 35.4267 89.4216 35.4784V35.6913L89.4004 36.041H85.8149C85.8604 36.5367 86.0122 36.8955 86.2703 37.1205C86.5284 37.3456 86.9109 37.4581 87.4149 37.4581C88.1283 37.4581 88.693 37.3364 89.1029 37.0901V37.823C88.6293 38.051 88.0524 38.1666 87.3784 38.1666C87.3693 38.1666 87.3602 38.1666 87.3481 38.1666C87.0597 38.1666 86.7955 38.1331 86.5526 38.0632C86.3128 37.9902 86.076 37.8716 85.8422 37.7013C85.6115 37.531 85.4293 37.2726 85.2958 36.9289C85.1713 36.5914 85.1045 36.1748 85.1045 35.6852ZM85.8179 35.4085H88.7082C88.7082 35.296 88.693 35.1713 88.6687 35.0314C88.6414 34.8915 88.5837 34.7152 88.5048 34.4962C88.4228 34.2803 88.274 34.0979 88.0585 33.9519C87.846 33.8059 87.5788 33.736 87.2631 33.736C86.7743 33.736 86.4191 33.8637 86.1974 34.1192C85.9758 34.3746 85.8513 34.8034 85.8179 35.4085Z" fill="#333333"/>
<path d="M90.0713 38.0906V31.2729H90.7847V38.0906H90.0713Z" fill="#333333"/>
<path d="M91.8535 32.2824V31.4888H92.6459V32.2824H91.8535ZM91.893 38.0906H92.6064V33.1552H91.893V38.0906Z" fill="#333333"/>
<path d="M93.332 36.5728C93.332 36.3508 93.3745 36.1531 93.4535 35.9768C93.5354 35.8004 93.6356 35.6575 93.7571 35.548C93.8755 35.4385 94.0273 35.3443 94.2094 35.2652C94.3946 35.1892 94.5555 35.1314 94.6982 35.0949C94.8379 35.0584 95.0079 35.031 95.2022 35.0098C95.3965 34.9915 95.5331 34.9794 95.6181 34.9763C95.697 34.9733 95.7972 34.9702 95.9065 34.9702L96.6989 35.0189C96.6989 34.5719 96.5775 34.2526 96.3346 34.058C96.0917 33.8694 95.7335 33.7721 95.2599 33.7721C94.7255 33.7721 94.2458 33.8512 93.8178 34.0093V33.319C94.3035 33.1457 94.7954 33.0605 95.2963 33.0605C95.9885 33.0605 96.5137 33.2339 96.878 33.5866C97.2424 33.9363 97.4215 34.4472 97.4215 35.1192V36.6032C97.4215 36.9194 97.3486 37.187 97.2029 37.4121C97.0572 37.6341 96.8689 37.7952 96.6412 37.8956C96.4105 37.9929 96.1949 38.0659 95.9946 38.1054C95.7942 38.1419 95.5938 38.1632 95.3995 38.1632C95.2477 38.1632 95.0929 38.1541 94.932 38.1328C94.7741 38.1145 94.592 38.0689 94.3916 37.999C94.1912 37.929 94.0151 37.8439 93.8694 37.7344C93.7206 37.6249 93.5931 37.4698 93.4899 37.2692C93.3836 37.0715 93.332 36.8373 93.332 36.5728ZM94.0485 36.5728C94.0485 37.187 94.4948 37.4972 95.3874 37.4972C95.3904 37.4972 95.3965 37.4972 95.4026 37.4972C96.2739 37.4972 96.7111 37.1992 96.7111 36.6032V35.6575C96.4925 35.6179 96.201 35.5997 95.8337 35.5997C94.6436 35.5967 94.0485 35.922 94.0485 36.5728Z" fill="#333333"/>
<path d="M98.1987 36.6095V31.2666H98.9122V33.2675C99.3068 33.1337 99.7137 33.0668 100.127 33.0668C100.354 33.0668 100.564 33.0881 100.764 33.1246C100.961 33.1641 101.162 33.2401 101.368 33.3527C101.572 33.4652 101.748 33.6111 101.897 33.7875C102.045 33.9639 102.167 34.2072 102.258 34.5112C102.349 34.8184 102.397 35.1681 102.397 35.5664C102.397 36.0013 102.346 36.3784 102.246 36.7068C102.145 37.0321 102.018 37.2845 101.872 37.464C101.723 37.6434 101.547 37.7924 101.338 37.9018C101.128 38.0144 100.937 38.0843 100.764 38.1177C100.588 38.1482 100.409 38.1664 100.227 38.1664C99.8685 38.1664 99.5588 38.1208 99.2947 38.0326C99.0306 37.9444 98.8332 37.841 98.6997 37.7255C98.5661 37.6099 98.4598 37.47 98.3779 37.3089C98.2959 37.1477 98.2473 37.0169 98.2291 36.9105C98.2048 36.8102 98.1987 36.7068 98.1987 36.6095ZM98.9122 36.649C98.9152 37.2298 99.3524 37.5187 100.218 37.5187C100.4 37.5187 100.567 37.4974 100.713 37.4548C100.861 37.4153 101.013 37.3332 101.171 37.2085C101.332 37.0869 101.453 36.8831 101.544 36.6064C101.632 36.3267 101.675 35.98 101.675 35.5664C101.675 34.9278 101.553 34.4626 101.308 34.1737C101.065 33.8848 100.67 33.7389 100.124 33.7389C99.7167 33.7389 99.3129 33.821 98.9091 33.9852V36.649H98.9122Z" fill="#333333"/>
<path d="M103.238 38.0906V31.2729H103.952V38.0906H103.238Z" fill="#333333"/>
<path d="M104.802 35.6852C104.802 35.6791 104.802 35.667 104.802 35.6518C104.802 35.6366 104.802 35.6214 104.802 35.6122C104.802 33.9124 105.521 33.064 106.96 33.064C107.261 33.064 107.534 33.1126 107.777 33.2069C108.023 33.3012 108.217 33.4137 108.36 33.5414C108.506 33.6721 108.63 33.8394 108.739 34.0462C108.849 34.253 108.925 34.4293 108.973 34.5753C109.019 34.7213 109.055 34.8946 109.082 35.1014C109.107 35.3021 109.119 35.4267 109.119 35.4784V35.6913L109.101 36.041H105.515C105.561 36.5367 105.713 36.8955 105.971 37.1205C106.226 37.3456 106.611 37.4581 107.115 37.4581C107.832 37.4581 108.393 37.3364 108.803 37.0901V37.823C108.33 38.051 107.753 38.1666 107.079 38.1666C107.07 38.1666 107.061 38.1666 107.051 38.1666C106.763 38.1666 106.499 38.1331 106.259 38.0632C106.016 37.9902 105.782 37.8716 105.549 37.7013C105.318 37.531 105.136 37.2726 105.005 36.9289C104.869 36.5914 104.802 36.1748 104.802 35.6852ZM105.515 35.4085H108.405C108.405 35.296 108.393 35.1713 108.366 35.0314C108.339 34.8915 108.281 34.7152 108.202 34.4962C108.12 34.2803 107.971 34.0979 107.759 33.9519C107.543 33.8059 107.279 33.736 106.963 33.736C106.475 33.736 106.119 33.8637 105.898 34.1192C105.676 34.3746 105.549 34.8034 105.515 35.4085Z" fill="#333333"/>
<path d="M112.941 38.0905V33.5413C113.576 33.225 114.235 33.0669 114.918 33.0669C115.455 33.0669 115.889 33.2007 116.217 33.4713C116.852 33.2007 117.462 33.0669 118.045 33.0669C118.646 33.0669 119.107 33.225 119.438 33.5413C119.769 33.8545 119.933 34.3015 119.933 34.8732V38.0905H119.22V34.8732C119.22 34.7333 119.208 34.6117 119.18 34.5022C119.156 34.3958 119.104 34.2802 119.025 34.1586C118.947 34.0369 118.819 33.9427 118.646 33.8758C118.47 33.8089 118.254 33.7754 117.999 33.7754C117.583 33.7754 117.131 33.8575 116.636 34.0248C116.742 34.262 116.797 34.5448 116.797 34.8732V38.0905H116.084V34.8732C116.084 34.7272 116.068 34.6026 116.041 34.4931C116.014 34.3866 115.962 34.2741 115.883 34.1555C115.804 34.0339 115.674 33.9457 115.495 33.8788C115.316 33.8119 115.094 33.7785 114.83 33.7785C114.429 33.7785 114.037 33.8393 113.655 33.9579V38.0935H112.941V38.0905Z" fill="#333333"/>
<path d="M120.692 35.6852C120.692 35.6791 120.692 35.667 120.692 35.6518C120.692 35.6366 120.692 35.6214 120.692 35.6122C120.692 33.9124 121.411 33.064 122.85 33.064C123.151 33.064 123.424 33.1126 123.67 33.2069C123.913 33.3012 124.107 33.4137 124.253 33.5414C124.396 33.6721 124.523 33.8394 124.633 34.0462C124.742 34.253 124.818 34.4293 124.866 34.5753C124.912 34.7213 124.948 34.8946 124.973 35.1014C125 35.3021 125.012 35.4267 125.012 35.4784V35.6913L124.994 36.041H121.408C121.454 36.5367 121.606 36.8955 121.864 37.1205C122.119 37.3456 122.504 37.4581 123.008 37.4581C123.725 37.4581 124.283 37.3364 124.696 37.0901V37.823C124.223 38.051 123.646 38.1666 122.969 38.1666C122.957 38.1666 122.948 38.1666 122.939 38.1666C122.65 38.1666 122.386 38.1331 122.146 38.0632C121.906 37.9902 121.669 37.8716 121.436 37.7013C121.202 37.531 121.02 37.2726 120.889 36.9289C120.759 36.5914 120.692 36.1748 120.692 35.6852ZM121.405 35.4085H124.296C124.296 35.296 124.28 35.1713 124.253 35.0314C124.226 34.8915 124.171 34.7152 124.089 34.4962C124.007 34.2803 123.858 34.0979 123.643 33.9519C123.43 33.8059 123.166 33.736 122.847 33.736C122.359 33.736 122 33.8637 121.785 34.1192C121.563 34.3746 121.439 34.8034 121.405 35.4085Z" fill="#333333"/>
<path d="M125.489 34.4931C125.489 34.1008 125.631 33.7633 125.92 33.4865C126.208 33.2068 126.649 33.0669 127.241 33.0669C127.659 33.0669 128.081 33.1672 128.503 33.3649V34.0765C128.127 33.8514 127.732 33.7359 127.316 33.7359C126.573 33.7359 126.202 33.9883 126.202 34.49C126.202 34.6634 126.293 34.8002 126.472 34.9066C126.652 35.01 126.873 35.0982 127.131 35.1682C127.392 35.2411 127.653 35.3202 127.911 35.4175C128.173 35.5148 128.394 35.676 128.576 35.9101C128.759 36.1412 128.85 36.4362 128.85 36.795C128.85 37.2238 128.689 37.5583 128.37 37.8046C128.048 38.0448 127.608 38.1695 127.04 38.1695C126.494 38.1695 125.996 38.0448 125.549 37.7955V37.0414C126.023 37.3333 126.509 37.4762 127.013 37.4762C127.763 37.4762 128.136 37.2481 128.136 36.795C128.136 36.5487 128.045 36.3571 127.866 36.2173C127.684 36.0774 127.465 35.974 127.204 35.9041C126.943 35.8341 126.682 35.7581 126.424 35.676C126.163 35.5939 125.941 35.454 125.762 35.2563C125.58 35.0678 125.489 34.8093 125.489 34.4931Z" fill="#333333"/>
<path d="M129.202 34.4931C129.202 34.1008 129.345 33.7633 129.633 33.4865C129.922 33.2068 130.362 33.0669 130.951 33.0669C131.373 33.0669 131.795 33.1672 132.217 33.3649V34.0765C131.84 33.8514 131.446 33.7359 131.03 33.7359C130.289 33.7359 129.916 33.9883 129.916 34.49C129.916 34.6634 130.007 34.8002 130.186 34.9066C130.368 35.01 130.587 35.0982 130.848 35.1682C131.109 35.2411 131.37 35.3202 131.628 35.4175C131.889 35.5148 132.111 35.676 132.293 35.9101C132.475 36.1412 132.566 36.4362 132.566 36.795C132.566 37.2238 132.405 37.5583 132.083 37.8046C131.765 38.0448 131.321 38.1695 130.754 38.1695C130.207 38.1695 129.712 38.0448 129.263 37.7955V37.0414C129.736 37.3333 130.222 37.4762 130.726 37.4762C131.476 37.4762 131.85 37.2481 131.85 36.795C131.85 36.5487 131.758 36.3571 131.579 36.2173C131.4 36.0774 131.179 35.974 130.917 35.9041C130.656 35.8341 130.395 35.7581 130.137 35.676C129.876 35.5939 129.655 35.454 129.472 35.2563C129.293 35.0678 129.202 34.8093 129.202 34.4931Z" fill="#333333"/>
<path d="M132.966 36.5728C132.966 36.3508 133.009 36.1531 133.091 35.9768C133.173 35.8004 133.273 35.6575 133.391 35.548C133.51 35.4385 133.662 35.3443 133.847 35.2652C134.029 35.1892 134.193 35.1314 134.332 35.0949C134.475 35.0584 134.642 35.031 134.836 35.0098C135.031 34.9915 135.167 34.9794 135.249 34.9763C135.331 34.9733 135.428 34.9702 135.541 34.9702L136.33 35.0189C136.33 34.5719 136.209 34.2526 135.969 34.058C135.726 33.8694 135.368 33.7721 134.891 33.7721C134.357 33.7721 133.877 33.8512 133.449 34.0093V33.319C133.935 33.1457 134.427 33.0605 134.928 33.0605C135.62 33.0605 136.145 33.2339 136.506 33.5866C136.871 33.9363 137.053 34.4472 137.053 35.1192V36.6032C137.053 36.9194 136.98 37.187 136.834 37.4121C136.688 37.6341 136.5 37.7952 136.269 37.8956C136.039 37.9929 135.823 38.0659 135.623 38.1054C135.422 38.1419 135.225 38.1632 135.028 38.1632C134.876 38.1632 134.721 38.1541 134.563 38.1328C134.402 38.1145 134.223 38.0689 134.023 37.999C133.822 37.929 133.646 37.8439 133.498 37.7344C133.349 37.6249 133.221 37.4698 133.118 37.2692C133.018 37.0715 132.966 36.8373 132.966 36.5728ZM133.683 36.5728C133.683 37.187 134.129 37.4972 135.022 37.4972C135.025 37.4972 135.028 37.4972 135.034 37.4972C135.908 37.4972 136.345 37.1992 136.345 36.6032V35.6575C136.127 35.6179 135.835 35.5997 135.471 35.5997C134.278 35.5967 133.683 35.922 133.683 36.5728Z" fill="#333333"/>
<path d="M137.645 35.6001C137.645 35.0831 137.715 34.6452 137.855 34.2864C137.994 33.9276 138.179 33.6661 138.41 33.4988C138.644 33.3346 138.865 33.2221 139.078 33.1582C139.291 33.0944 139.509 33.064 139.743 33.064C140.165 33.064 140.517 33.1217 140.802 33.2403C141.088 33.3589 141.288 33.511 141.407 33.6934C141.522 33.8789 141.598 34.0401 141.64 34.1739C141.68 34.3107 141.701 34.4415 141.701 34.5753V38.2943C141.701 38.5133 141.671 38.717 141.607 38.8964C141.543 39.0789 141.44 39.2583 141.297 39.4346C141.155 39.611 140.933 39.7448 140.632 39.8452C140.335 39.9455 139.977 39.9942 139.558 39.9942C139.099 39.9942 138.632 39.9334 138.155 39.8148V39.1427C138.577 39.2644 139.017 39.3221 139.482 39.3221C139.798 39.3221 140.062 39.2917 140.274 39.237C140.49 39.1792 140.645 39.1002 140.742 38.9968C140.839 38.8903 140.903 38.7869 140.939 38.6835C140.975 38.5802 140.991 38.4555 140.991 38.3126V37.8199C140.62 37.9385 140.238 37.9993 139.834 37.9993C139.615 37.9993 139.412 37.9811 139.221 37.9446C139.029 37.9081 138.835 37.8321 138.638 37.7226C138.44 37.6132 138.27 37.4733 138.131 37.2969C137.988 37.1205 137.873 36.8894 137.785 36.6005C137.691 36.3208 137.645 35.9832 137.645 35.6001ZM138.358 35.597C138.358 35.968 138.398 36.2721 138.477 36.5123C138.556 36.7526 138.671 36.932 138.823 37.0445C138.975 37.1601 139.13 37.2391 139.281 37.2786C139.436 37.3151 139.615 37.3364 139.825 37.3364C140.22 37.3364 140.605 37.2604 140.982 37.1084V34.5479C140.982 33.9945 140.566 33.7178 139.74 33.7178C139.564 33.7178 139.406 33.739 139.269 33.7816C139.133 33.8242 138.987 33.9033 138.838 34.0249C138.686 34.1435 138.571 34.3351 138.486 34.6027C138.401 34.8703 138.358 35.2017 138.358 35.597Z" fill="#333333"/>
<path d="M142.66 32.2824V31.4888H143.45V32.2824H142.66ZM142.7 38.0906H143.413V33.1552H142.7V38.0906Z" fill="#333333"/>
<path d="M144.479 38.0905V33.5504C145.129 33.2281 145.821 33.0669 146.565 33.0669C147.184 33.0669 147.667 33.225 148.007 33.5413C148.35 33.8545 148.52 34.3015 148.52 34.8732V38.0905H147.806V34.8732C147.806 34.7333 147.791 34.6117 147.764 34.5022C147.737 34.3958 147.679 34.2802 147.597 34.1586C147.512 34.0369 147.378 33.9427 147.193 33.8758C147.008 33.8089 146.774 33.7754 146.492 33.7754C146.079 33.7754 145.648 33.8423 145.195 33.9731V38.0905H144.479Z" fill="#333333"/>
<path d="M149.336 35.6001C149.336 35.0831 149.406 34.6452 149.546 34.2864C149.683 33.9276 149.871 33.6661 150.105 33.4988C150.338 33.3346 150.56 33.2221 150.769 33.1582C150.979 33.0944 151.201 33.064 151.434 33.064C151.856 33.064 152.208 33.1217 152.494 33.2403C152.779 33.3589 152.98 33.511 153.095 33.6934C153.21 33.8789 153.289 34.0401 153.329 34.1739C153.368 34.3107 153.389 34.4415 153.389 34.5753V38.2943C153.389 38.5133 153.359 38.717 153.298 38.8964C153.235 39.0789 153.131 39.2583 152.986 39.4346C152.843 39.611 152.621 39.7448 152.324 39.8452C152.026 39.9455 151.668 39.9942 151.249 39.9942C150.788 39.9942 150.323 39.9334 149.843 39.8148V39.1427C150.265 39.2644 150.706 39.3221 151.17 39.3221C151.486 39.3221 151.75 39.2917 151.963 39.237C152.175 39.1792 152.33 39.1002 152.427 38.9968C152.521 38.8903 152.588 38.7869 152.624 38.6835C152.658 38.5802 152.676 38.4555 152.676 38.3126V37.8199C152.306 37.9385 151.923 37.9993 151.519 37.9993C151.301 37.9993 151.097 37.9811 150.906 37.9446C150.715 37.9081 150.523 37.8321 150.323 37.7226C150.126 37.6132 149.956 37.4733 149.813 37.2969C149.67 37.1205 149.555 36.8894 149.467 36.6005C149.382 36.3208 149.336 35.9832 149.336 35.6001ZM150.05 35.597C150.05 35.968 150.089 36.2721 150.168 36.5123C150.247 36.7526 150.363 36.932 150.514 37.0445C150.666 37.1601 150.821 37.2391 150.976 37.2786C151.131 37.3151 151.31 37.3364 151.519 37.3364C151.914 37.3364 152.3 37.2604 152.676 37.1084V34.5479C152.676 33.9945 152.263 33.7178 151.434 33.7178C151.258 33.7178 151.1 33.739 150.964 33.7816C150.824 33.8242 150.681 33.9033 150.53 34.0249C150.378 34.1435 150.262 34.3351 150.177 34.6027C150.092 34.8703 150.05 35.2017 150.05 35.597Z" fill="#333333"/>
<path d="M132.195 6.76318L124.839 16.415L117.529 6.76318H114.146V29.1108H117.267V11.4918L124.839 21.5055L132.265 11.4918L135.577 6.76318H132.195Z" fill="url(#paint4_linear_118_4545)"/>
<path d="M132.457 11.4917V29.1107H135.578V14.4961L132.457 11.4917Z" fill="url(#paint5_linear_118_4545)"/>
<path d="M152.248 20.0184C151.659 19.0818 150.93 18.3733 150.056 17.8867C149.184 17.4002 148.231 16.944 147.196 16.5153C146.161 16.0865 145.207 15.7368 144.339 15.4662C143.468 15.1955 142.739 14.8336 142.147 14.3836C141.555 13.9335 141.257 13.4044 141.257 12.7993C141.257 10.5399 142.942 9.41172 146.312 9.41172C148.261 9.41172 150.053 9.90738 151.689 10.8987V7.86086C149.858 6.95163 147.943 6.49854 145.939 6.49854C143.279 6.49854 141.315 7.1128 140.046 8.33524C138.777 9.56072 138.143 11.0477 138.143 12.7962C138.143 13.9427 138.437 14.9157 139.026 15.7185C139.615 16.5244 140.344 17.1143 141.215 17.4944C142.083 17.8745 143.04 18.2455 144.084 18.6104L146.953 19.5866C147.821 19.8724 148.55 20.3346 149.139 20.9732C149.725 21.6118 150.019 22.3842 150.019 23.2843C150.007 25.3977 148.271 26.456 144.803 26.456C142.633 26.456 140.514 25.8235 138.443 24.5554V27.7666C140.635 28.8339 142.845 29.3691 145.083 29.3691C147.6 29.3691 149.573 28.8309 151 27.7605C152.427 26.6871 153.143 25.197 153.143 23.2873C153.128 22.0436 152.834 20.955 152.248 20.0184Z" fill="url(#paint6_linear_118_4545)"/>
<path d="M108.679 17.8901C107.808 17.4036 106.854 16.9474 105.816 16.5187C104.781 16.0899 103.827 15.7402 102.959 15.4696C102.088 15.1989 101.359 14.8371 100.767 14.387C100.175 13.937 99.8776 13.4078 99.8776 12.8027C99.8776 10.5433 101.563 9.41514 104.932 9.41514C106.882 9.41514 108.673 9.9108 110.309 10.9021V7.86428C108.479 6.95505 106.563 6.50195 104.559 6.50195C101.9 6.50195 99.9353 7.11622 98.6662 8.33866C97.3972 9.56414 96.7627 11.0511 96.7627 12.7997C96.7627 13.9461 97.0572 14.9192 97.6462 15.722C98.2351 16.5278 98.9638 17.1177 99.8321 17.4978C100.7 17.878 101.657 18.249 102.701 18.6139L105.57 19.59C106.441 19.8758 107.167 20.3381 107.756 20.9766C108.345 21.6152 108.636 22.3876 108.636 23.2877C108.624 25.4011 106.888 26.4594 103.421 26.4594C101.25 26.4594 99.1308 25.8269 97.0572 24.5588V27.77C99.2492 28.8374 101.462 29.3726 103.697 29.3726C106.214 29.3726 108.187 28.8343 109.614 27.7639C111.041 26.6905 111.754 25.2004 111.754 23.2908C111.754 22.047 111.46 20.9554 110.871 20.0188C110.282 19.0822 109.55 18.3736 108.679 17.8901Z" fill="#1C749B"/>
<defs>
<linearGradient id="paint0_linear_118_4545" x1="16.0386" y1="1.16077" x2="3.0346" y2="9.96529" gradientUnits="userSpaceOnUse">
<stop stop-color="#1B769D"/>
<stop offset="0.2873" stop-color="#1D6790"/>
<stop offset="0.6497" stop-color="#1F5A86"/>
<stop offset="1" stop-color="#205682"/>
</linearGradient>
<linearGradient id="paint1_linear_118_4545" x1="0.225812" y1="9.30485" x2="16.3154" y2="14.5363" gradientUnits="userSpaceOnUse">
<stop stop-color="#001B46"/>
<stop offset="1" stop-color="#466687"/>
</linearGradient>
<linearGradient id="paint2_linear_118_4545" x1="6.62239" y1="24.8627" x2="29.201" y2="24.8629" gradientUnits="userSpaceOnUse">
<stop stop-color="#1B769D"/>
<stop offset="0.2873" stop-color="#1D6790"/>
<stop offset="0.6497" stop-color="#1F5A86"/>
<stop offset="1" stop-color="#205682"/>
</linearGradient>
<linearGradient id="paint3_linear_118_4545" x1="20.4432" y1="13.5557" x2="29.2012" y2="13.5557" gradientUnits="userSpaceOnUse">
<stop offset="0.5" stop-color="#243A5A"/>
<stop offset="0.8828" stop-color="#203B57"/>
<stop offset="1" stop-color="#1D3C55"/>
</linearGradient>
<linearGradient id="paint4_linear_118_4545" x1="97.3441" y1="17.9377" x2="151.011" y2="17.9377" gradientUnits="userSpaceOnUse">
<stop stop-color="#1B769D"/>
<stop offset="0.2873" stop-color="#1D6790"/>
<stop offset="0.6497" stop-color="#1F5A86"/>
<stop offset="1" stop-color="#205682"/>
</linearGradient>
<linearGradient id="paint5_linear_118_4545" x1="97.3443" y1="20.3016" x2="151.011" y2="20.3016" gradientUnits="userSpaceOnUse">
<stop stop-color="#1B769D"/>
<stop offset="0.2873" stop-color="#1D6790"/>
<stop offset="0.6497" stop-color="#1F5A86"/>
<stop offset="1" stop-color="#205682"/>
</linearGradient>
<linearGradient id="paint6_linear_118_4545" x1="97.3432" y1="17.9379" x2="151.011" y2="17.9379" gradientUnits="userSpaceOnUse">
<stop stop-color="#1B769D"/>
<stop offset="0.2873" stop-color="#1D6790"/>
<stop offset="0.6497" stop-color="#1F5A86"/>
<stop offset="1" stop-color="#205682"/>
</linearGradient>
</defs>
</svg>
